<?xml version="1.0" standalone="no"?><!DOCTYPE svg PUBLIC "-//W3C//DTD SVG 1.1//EN" "http://www.w3.org/Graphics/SVG/1.1/DTD/svg11.dtd"><svg class="icon" width="16px" height="16.00px" viewBox="0 0 1024 1024" version="1.1" xmlns="http://www.w3.org/2000/svg"><path d="M924.347372 950.121386H99.652628c-18.97619 0-34.362622-15.385409-34.362623-34.370809 0-18.97619 15.385409-34.362622 34.362623-34.362622h824.694744c18.97619 0 34.362622 15.385409 34.362623 34.362622-0.001023 18.9854-15.386432 34.370809-34.362623 34.370809z" fill="#444444" /><path d="M889.98475 915.750577c-18.97619 0-34.362622-15.385409-34.362622-34.362622V709.576891c0-18.951631-15.419178-34.362622-34.362622-34.362622H202.739471c-18.942421 0-34.362622 15.410991-34.362623 34.362622v171.811064c0 18.97619-15.385409 34.362622-34.362622 34.362622s-34.362622-15.385409-34.362622-34.362622V709.576891c0-56.845683 46.24116-103.086843 103.086843-103.086843h618.521059c56.845683 0 103.086843 46.24116 103.086843 103.086843v171.811064c0.001023 18.977213-15.385409 34.362622-34.361599 34.362622z" fill="#444444" /><path d="M554.950208 490.66359667h-85.905532V250.12831167c0-18.968004 15.394618-34.362622 34.362622-34.362622h17.181311c18.968004 0 34.362622 15.394618 34.362622 34.362622v240.535285zM511.997953 197.16607567c28.466332 0 51.543933-23.076578 51.543934-51.54291 0-18.978237-17.181311-50.003857-51.543934-93.077885-34.362622 43.074028-51.54291 74.099648-51.54291 93.077885-0.001023 28.466332 23.075555 51.54291 51.54291 51.54291z" fill="#00D8A0" /><path d="M735.354997 675.215292H288.645003c-37.902238 0-68.724221-30.830169-68.724221-68.724221V434.678984c0-56.845683 46.24116-103.086843 103.086843-103.086843h377.98475c56.845683 0 103.086843 46.24116 103.086843 103.086843v171.811064c0 37.894052-30.821983 68.725244-68.724221 68.725244zM323.007625 400.316362c-18.942421 0-34.362622 15.410991-34.362622 34.362622v171.811064h446.708971V434.678984c0-18.951631-15.419178-34.362622-34.362622-34.362622H323.007625z" fill="#444444" /></svg>